<?xml version="1.0" standalone="no"?>
<!DOCTYPE svg PUBLIC "-//W3C//DTD SVG 20010904//EN"
 "http://www.w3.org/TR/2001/REC-SVG-20010904/DTD/svg10.dtd">
<svg version="1.0" xmlns="http://www.w3.org/2000/svg"
 width="429.000000pt" height="1280.000000pt" viewBox="0 0 429.000000 1280.000000"
 preserveAspectRatio="xMidYMid meet">
<metadata>
Created by potrace 1.15, written by Peter Selinger 2001-2017
</metadata>
<g transform="translate(0.000000,1280.000000) scale(0.100000,-0.100000)"
fill="#000000" stroke="none">
<path d="M1929 12764 c-52 -18 -133 -40 -179 -48 -46 -8 -89 -21 -95 -29 -6
-9 -8 -51 -4 -118 13 -195 11 -239 -8 -239 -9 0 -24 6 -32 14 -10 9 -47 15
-101 17 -81 4 -85 3 -97 -21 -16 -31 -17 -106 -2 -149 9 -26 16 -32 33 -27 11
2 53 10 91 17 39 6 77 18 86 25 8 8 23 14 32 14 15 0 17 -16 17 -149 0 -134
-2 -150 -17 -154 -10 -2 -27 4 -38 14 -15 13 -42 18 -105 20 l-84 3 -14 -44
c-13 -46 -10 -101 9 -143 11 -24 12 -24 67 -11 32 8 69 14 84 14 17 0 31 8 38
20 6 12 21 20 35 20 25 0 25 -1 25 -83 0 -46 -3 -118 -6 -160 -7 -73 -8 -77
-31 -77 -13 0 -34 11 -46 25 -19 21 -31 25 -97 27 l-75 2 -17 -35 c-10 -19
-18 -47 -18 -64 0 -39 18 -102 31 -110 5 -4 44 -3 86 1 63 5 80 11 99 31 13
14 31 23 41 21 16 -3 17 -13 13 -88 -7 -136 -5 -146 22 -179 15 -17 39 -56 55
-88 25 -51 28 -69 28 -153 0 -183 -75 -4747 -81 -4926 l-6 -180 -110 -17
c-201 -32 -444 -114 -585 -199 -79 -46 -234 -197 -289 -280 -101 -152 -140
-293 -131 -483 8 -187 62 -342 201 -575 155 -260 187 -501 91 -690 -14 -28
-75 -103 -137 -167 -247 -260 -415 -508 -546 -803 -113 -255 -162 -454 -162
-663 0 -426 96 -780 291 -1077 88 -134 280 -324 424 -420 453 -301 1144 -450
1755 -377 704 85 1184 326 1504 757 87 117 128 197 186 365 84 244 118 423
127 655 20 548 -197 1034 -680 1523 -142 144 -175 187 -217 280 -64 142 -66
284 -8 467 11 36 58 144 103 240 134 280 167 416 145 593 -24 199 -73 277
-171 277 -63 0 -119 -28 -156 -77 -15 -21 -60 -70 -98 -109 -90 -90 -152 -118
-271 -118 -74 -1 -87 3 -158 37 -131 65 -220 177 -262 327 -10 36 -18 136 -24
285 -7 199 -11 238 -30 285 -11 30 -32 102 -45 160 l-25 105 -42 2347 c-35
1950 -40 2357 -30 2410 17 82 78 209 135 277 48 57 56 84 58 191 1 87 12 158
22 143 5 -7 17 -13 28 -13 11 0 27 -7 35 -15 10 -10 36 -15 77 -15 34 0 71 -3
83 -6 15 -4 23 1 32 21 22 47 25 99 9 138 l-16 37 -78 -6 c-53 -4 -87 -12
-105 -25 -15 -10 -34 -19 -42 -19 -8 0 -20 -8 -25 -17 -6 -10 -10 -13 -10 -8
-1 29 29 348 32 352 2 2 10 -3 17 -12 7 -8 19 -15 28 -15 8 0 24 -8 34 -17 13
-11 40 -18 86 -20 37 -1 75 -4 86 -5 14 -2 22 7 33 37 16 43 13 139 -4 156
-12 12 -184 -9 -194 -24 -11 -17 -79 -36 -79 -23 -1 40 35 336 41 336 4 0 10
-7 13 -16 4 -10 12 -14 23 -10 9 4 24 -1 35 -11 14 -13 41 -18 102 -20 80 -3
83 -3 94 22 26 57 6 183 -27 170 -9 -4 -47 -10 -86 -12 -43 -3 -78 -12 -90
-22 -11 -9 -31 -22 -44 -29 -22 -13 -23 -12 -18 10 3 12 13 73 23 135 18 120
14 193 -13 214 -9 8 -45 14 -87 15 -50 1 -107 13 -191 39 -87 26 -130 35 -155
30 -41 -7 -60 -7 -115 -1 -28 3 -68 -6 -136 -30z"/>
</g>
</svg>
