<?xml version="1.0" standalone="no"?>
<!DOCTYPE svg PUBLIC "-//W3C//DTD SVG 20010904//EN"
 "http://www.w3.org/TR/2001/REC-SVG-20010904/DTD/svg10.dtd">
<svg version="1.0" xmlns="http://www.w3.org/2000/svg"
 width="640.000000pt" height="1280.000000pt" viewBox="0 0 640.000000 1280.000000"
 preserveAspectRatio="xMidYMid meet">
<metadata>
Created by potrace 1.15, written by Peter Selinger 2001-2017
</metadata>
<g transform="translate(0.000000,1280.000000) scale(0.100000,-0.100000)"
fill="#000000" stroke="none">
<path d="M3050 12782 c-67 -36 -90 -87 -175 -385 -44 -153 -83 -277 -89 -277
-6 0 -24 13 -41 29 -34 33 -127 73 -149 65 -44 -17 -74 -165 -40 -198 18 -19
124 -22 155 -5 11 5 28 9 38 7 17 -3 16 -9 -10 -102 -16 -54 -30 -101 -33
-103 -3 -3 -22 9 -43 27 -49 41 -129 73 -153 60 -40 -21 -68 -168 -38 -198 15
-15 122 -16 165 0 18 6 35 10 38 7 4 -4 -43 -182 -60 -228 -4 -11 -14 -6 -39
18 -35 34 -126 74 -149 65 -23 -8 -57 -92 -57 -139 0 -64 18 -78 99 -72 36 2
77 8 90 12 22 8 23 7 17 -31 -12 -70 2 -87 123 -149 70 -36 122 -70 145 -95
68 -76 67 -58 56 -874 -5 -402 -14 -1183 -20 -1736 -22 -1948 -27 -2240 -43
-2297 -27 -96 -59 -146 -161 -248 -54 -55 -105 -113 -111 -130 -7 -16 -58
-158 -113 -315 -55 -157 -241 -683 -412 -1170 -171 -487 -450 -1279 -620
-1760 -170 -481 -408 -1158 -530 -1504 -122 -345 -230 -663 -241 -705 -80
-305 211 -464 455 -250 39 35 417 486 1553 1856 223 269 371 380 520 390 53 4
80 0 124 -16 119 -45 255 -156 387 -315 240 -289 1638 -1932 1660 -1951 91
-75 213 -85 303 -25 57 38 84 80 105 159 14 56 14 75 4 140 -7 42 -20 99 -31
126 -10 28 -156 437 -324 910 -169 473 -432 1211 -585 1640 -153 429 -416
1167 -585 1640 -169 473 -329 922 -356 999 -63 177 -68 184 -133 242 -103 92
-166 190 -200 307 -24 83 -34 230 -41 607 -3 184 -10 526 -15 760 -10 449 -24
1034 -40 1773 -6 246 -14 646 -20 890 -16 726 -16 745 9 803 36 81 90 124 206
164 96 33 109 54 80 133 -13 38 -13 39 8 31 12 -4 53 -9 91 -11 59 -4 72 -2
83 13 29 40 3 172 -38 194 -25 14 -114 -22 -155 -61 l-31 -30 -37 116 c-21 64
-35 120 -31 123 3 3 20 0 38 -6 43 -16 150 -15 165 0 31 31 0 185 -41 201 -22
8 -130 -40 -150 -68 -35 -47 -51 -34 -82 68 -15 50 -30 98 -33 106 -4 11 2 12
29 6 19 -4 64 -9 100 -12 80 -6 99 8 99 68 0 46 -35 135 -56 143 -22 8 -115
-32 -149 -65 -17 -16 -37 -29 -45 -29 -11 0 -40 81 -100 272 -89 283 -106 321
-175 373 -47 37 -116 44 -165 17z"/>
</g>
</svg>
