<?xml version="1.0" standalone="no"?>
<!DOCTYPE svg PUBLIC "-//W3C//DTD SVG 20010904//EN"
 "http://www.w3.org/TR/2001/REC-SVG-20010904/DTD/svg10.dtd">
<svg version="1.0" xmlns="http://www.w3.org/2000/svg"
 width="640.000000pt" height="1280.000000pt" viewBox="0 0 640.000000 1280.000000"
 preserveAspectRatio="xMidYMid meet">
<metadata>
Created by potrace 1.15, written by Peter Selinger 2001-2017
</metadata>
<g transform="translate(0.000000,1280.000000) scale(0.100000,-0.100000)"
fill="#000000" stroke="none">
<path d="M2858 12789 c-16 -9 -18 -29 -18 -194 l0 -185 -23 0 c-18 0 -28 10
-42 40 -35 77 -91 99 -142 56 -31 -26 -63 -98 -63 -140 0 -74 63 -166 113
-166 34 0 70 31 92 79 14 31 24 41 42 41 21 0 23 -4 23 -52 -1 -77 -16 -308
-21 -312 -2 -2 -14 -7 -27 -10 -19 -6 -25 -2 -36 26 -8 18 -24 45 -36 61 -44
55 -129 25 -159 -56 -36 -96 18 -237 91 -237 44 0 66 16 93 70 18 36 31 50 47
50 20 0 20 -3 14 -66 -6 -60 -59 -284 -72 -305 -3 -5 -20 -9 -37 -9 -28 1 -35
6 -55 49 -39 84 -111 92 -159 19 -66 -99 -19 -278 73 -278 31 0 81 44 96 85 6
19 18 35 25 35 20 0 16 -13 -33 -113 -58 -116 -56 -131 24 -185 113 -78 190
-180 230 -306 18 -58 19 -163 2 -1021 -10 -520 -22 -1140 -40 -2120 -6 -302
-15 -764 -20 -1025 -5 -261 -14 -788 -20 -1170 -7 -382 -15 -709 -18 -727 l-7
-31 -115 38 c-64 20 -156 58 -205 83 -270 135 -366 284 -461 715 -21 92 -44
177 -52 190 -23 36 -65 52 -134 52 -124 0 -205 -63 -277 -212 -71 -148 -86
-218 -86 -413 0 -160 2 -178 34 -299 38 -151 88 -288 199 -553 125 -298 144
-358 150 -489 5 -132 -7 -211 -54 -352 -63 -191 -156 -353 -440 -770 -182
-266 -233 -357 -277 -490 -56 -167 -71 -274 -71 -517 0 -298 35 -474 138 -691
170 -354 453 -606 896 -798 159 -68 388 -121 705 -163 207 -27 668 -24 890 6
713 95 1123 291 1441 686 80 100 201 292 234 373 120 286 118 621 -5 1001 -55
170 -128 304 -340 620 -105 158 -214 332 -243 388 -165 321 -184 617 -58 887
18 39 72 140 119 225 92 164 143 289 153 374 13 114 -37 253 -128 353 -132
143 -272 154 -337 25 -120 -235 -418 -400 -728 -404 -64 -1 -116 2 -122 8 -10
10 -17 328 -41 1840 -6 352 -15 915 -20 1250 -5 336 -14 905 -20 1265 -6 360
-15 903 -20 1206 -10 535 -9 554 10 629 40 158 102 247 226 325 94 59 105 94
53 170 -36 54 -69 115 -69 130 0 24 27 7 38 -25 15 -41 65 -85 96 -85 92 0
139 179 73 278 -48 73 -120 65 -159 -19 -19 -40 -28 -48 -50 -49 -25 0 -29 6
-43 53 -18 63 -65 285 -65 310 0 34 30 16 55 -33 27 -54 48 -70 94 -70 63 0
119 114 99 203 -16 74 -53 116 -101 117 -43 0 -65 -16 -92 -70 -20 -40 -30
-49 -48 -46 -19 2 -23 11 -28 67 -4 35 -7 119 -8 187 l-1 122 25 0 c20 0 30
-10 50 -50 29 -58 54 -74 101 -66 34 7 58 33 82 89 32 75 -6 201 -68 227 -47
20 -92 -5 -116 -64 -16 -39 -23 -46 -46 -46 l-28 0 0 93 c0 111 -13 143 -55
140 -17 0 -59 -9 -95 -18 -110 -28 -204 -4 -404 105 -128 70 -155 78 -188 59z"/>
</g>
</svg>
