<?xml version="1.0" standalone="no"?>
<!DOCTYPE svg PUBLIC "-//W3C//DTD SVG 20010904//EN"
 "http://www.w3.org/TR/2001/REC-SVG-20010904/DTD/svg10.dtd">
<svg version="1.0" xmlns="http://www.w3.org/2000/svg"
 width="1280.000000pt" height="640.000000pt" viewBox="0 0 1280.000000 640.000000"
 preserveAspectRatio="xMidYMid meet">
<metadata>
Created by potrace 1.15, written by Peter Selinger 2001-2017
</metadata>
<g transform="translate(0.000000,640.000000) scale(0.100000,-0.100000)"
fill="#000000" stroke="none">
<path d="M4 5585 c-4 -8 -1 -22 6 -30 6 -7 301 -197 655 -420 l643 -406 293
-241 c162 -132 340 -283 396 -335 96 -89 101 -96 91 -119 -6 -13 -22 -27 -35
-30 -31 -8 -30 -37 3 -63 33 -26 41 -26 49 -1 4 11 19 27 35 35 l29 15 87 -98
c48 -53 92 -100 97 -104 6 -3 61 -4 123 -1 196 10 299 -24 401 -130 138 -143
209 -395 174 -615 -44 -283 -266 -737 -639 -1307 -165 -252 -317 -451 -558
-731 -154 -178 -174 -212 -116 -201 16 3 710 358 1543 788 833 429 1672 862
1864 962 193 99 362 189 378 199 34 24 44 43 68 130 39 139 112 238 205 280
35 15 311 56 1142 169 603 82 1178 160 1277 174 184 25 1025 139 1625 220 184
25 493 67 685 93 307 42 356 47 400 37 102 -23 187 -86 236 -176 13 -24 32
-45 42 -47 10 -2 42 15 72 37 59 45 67 48 59 27 -3 -8 2 -29 12 -45 27 -45 65
-42 115 8 47 46 49 71 9 104 l-29 25 34 26 c41 31 45 32 45 6 0 -32 30 -70 55
-70 33 0 87 41 101 77 12 28 11 34 -7 57 -11 14 -28 26 -36 26 -15 0 -15 2 0
18 9 9 29 25 45 34 29 17 29 17 25 -5 -5 -27 31 -77 55 -77 31 0 82 39 100 76
l17 37 -36 30 -37 31 47 33 46 33 3 -29 c4 -40 40 -71 74 -64 35 7 88 66 88
97 0 14 -12 34 -29 49 l-30 25 45 32 45 32 -7 -26 c-4 -18 1 -34 16 -56 19
-26 27 -30 49 -25 40 10 69 32 86 66 20 38 12 65 -27 89 l-30 18 47 32 c44 30
46 31 40 8 -4 -15 2 -32 18 -52 20 -24 28 -27 55 -22 36 8 92 67 92 96 0 20
-27 53 -51 63 -10 4 -8 11 11 27 45 37 60 43 60 23 0 -10 7 -29 16 -41 22 -32
66 -29 109 9 42 37 46 72 10 109 l-25 26 111 79 c124 90 137 101 122 116 -6 6
-84 24 -174 40 -206 38 -261 36 -379 -16 -233 -102 -1178 -395 -1415 -439 -80
-15 -323 -43 -565 -66 -234 -22 -706 -67 -1050 -100 -344 -32 -674 -64 -735
-70 -60 -5 -272 -26 -470 -45 -307 -29 -654 -60 -1447 -128 -207 -18 -271 -3
-397 91 -41 31 -73 45 -144 62 -51 12 -292 71 -537 132 -245 60 -517 127 -605
148 -88 21 -344 85 -570 140 -225 56 -491 121 -590 145 -99 24 -337 83 -530
130 -192 47 -468 115 -612 151 -145 35 -381 93 -525 128 -319 78 -1048 259
-1598 395 -222 56 -413 101 -423 101 -9 0 -20 -7 -23 -15z"/>
</g>
</svg>
