<?xml version="1.0" standalone="no"?>
<!DOCTYPE svg PUBLIC "-//W3C//DTD SVG 20010904//EN"
 "http://www.w3.org/TR/2001/REC-SVG-20010904/DTD/svg10.dtd">
<svg version="1.0" xmlns="http://www.w3.org/2000/svg"
 width="1280.000000pt" height="910.000000pt" viewBox="0 0 1280.000000 910.000000"
 preserveAspectRatio="xMidYMid meet">
<metadata>
Created by potrace 1.15, written by Peter Selinger 2001-2017
</metadata>
<g transform="translate(0.000000,910.000000) scale(0.100000,-0.100000)"
fill="#000000" stroke="none">
<path d="M11757 9065 c-26 -20 -47 -41 -47 -47 0 -25 81 -147 102 -154 32 -10
10 -18 -117 -44 -60 -13 -120 -25 -133 -28 -22 -4 -23 -3 -16 45 4 34 1 69
-11 111 l-18 62 -49 0 c-40 0 -59 -6 -94 -32 -24 -17 -44 -36 -44 -41 0 -20
65 -129 88 -148 14 -11 23 -21 21 -22 -2 -2 -62 -16 -134 -31 -71 -15 -139
-30 -151 -32 -20 -5 -21 -1 -21 68 0 40 -7 91 -15 113 -14 38 -18 40 -59 43
-38 3 -52 -2 -92 -33 -26 -20 -47 -41 -47 -48 0 -24 75 -140 98 -150 12 -6 22
-13 22 -16 0 -4 -26 -12 -57 -20 -93 -21 -93 -21 -93 -109 0 -96 -19 -168 -62
-239 -37 -62 -153 -184 -195 -206 -15 -8 -260 -142 -543 -297 -498 -273 -905
-496 -2010 -1100 -439 -241 -1223 -669 -1430 -782 -30 -17 -227 -124 -436
-239 -210 -115 -392 -209 -404 -209 -13 0 -38 12 -57 26 -28 21 -34 32 -31 57
3 30 5 32 40 29 38 -3 38 -3 27 25 -13 34 -68 93 -87 93 -10 0 -13 -8 -10 -25
6 -30 -16 -53 -34 -37 -7 6 -24 10 -38 10 -14 0 -45 5 -70 10 -57 13 -66 12
-470 -59 -2118 -375 -4808 -896 -4920 -954 -42 -22 -110 -102 -137 -162 -30
-65 -28 -125 8 -195 23 -45 126 -151 169 -173 23 -11 323 -86 724 -179 81 -19
152 -38 157 -43 14 -14 0 -43 -21 -43 -32 0 -32 -19 1 -35 34 -18 112 -25 126
-11 4 4 -2 15 -14 23 -23 16 -30 38 -15 47 5 3 182 -32 393 -78 211 -47 559
-119 773 -161 464 -91 537 -114 611 -190 28 -28 65 -80 83 -116 54 -107 48
-144 -86 -539 -140 -410 -325 -938 -641 -1827 -184 -516 -207 -595 -196 -683
10 -78 27 -112 87 -176 81 -86 127 -109 218 -109 65 1 85 5 150 37 41 20 94
53 118 73 23 20 672 775 1443 1676 1651 1933 2099 2463 2132 2521 40 70 41 89
7 226 -43 174 -33 214 87 337 197 204 170 186 1108 739 479 283 884 522 902
532 17 11 119 70 225 133 106 63 229 136 273 162 44 26 141 83 215 126 74 44
270 160 435 257 165 97 307 180 315 185 8 5 76 45 150 89 179 105 176 103 355
210 86 51 160 90 165 87 5 -3 15 3 22 13 7 10 95 67 196 126 229 136 291 158
452 159 102 0 123 -3 185 -27 38 -15 97 -42 131 -61 34 -19 68 -35 75 -35 8 0
41 28 75 61 37 37 67 59 74 54 6 -4 9 -13 6 -21 -3 -8 -2 -22 4 -32 5 -9 11
-29 14 -43 3 -15 26 -54 51 -88 42 -57 47 -61 68 -50 70 38 96 60 107 94 11
33 10 39 -11 62 -34 37 -109 83 -135 83 -13 0 -26 5 -29 11 -4 6 -13 8 -19 6
-7 -3 -18 -2 -25 2 -14 9 234 254 252 248 7 -2 11 -13 9 -25 -2 -11 2 -23 8
-27 5 -3 10 -17 10 -29 0 -26 75 -145 95 -153 7 -2 35 7 62 20 34 18 53 36 66
61 23 49 22 52 -20 89 -63 56 -92 70 -163 81 -48 7 -41 19 76 137 92 92 121
116 131 107 7 -6 11 -19 8 -29 -4 -11 -2 -19 4 -19 6 0 11 -10 11 -22 0 -25
45 -105 82 -150 l23 -28 54 33 c41 24 58 42 72 74 l18 42 -47 39 c-56 46 -84
62 -110 62 -11 0 -25 7 -32 15 -9 11 -16 12 -25 5 -9 -7 -16 -6 -25 5 -12 14
17 46 209 237 277 276 293 294 299 357 7 78 -29 128 -109 151 -42 12 -161 -5
-491 -71 -136 -27 -252 -49 -258 -49 -8 0 -9 17 -5 53 4 37 1 69 -12 112 l-19
60 -45 3 c-39 3 -52 -2 -92 -33z"/>
</g>
</svg>
