<?xml version="1.0" standalone="no"?>
<!DOCTYPE svg PUBLIC "-//W3C//DTD SVG 20010904//EN"
 "http://www.w3.org/TR/2001/REC-SVG-20010904/DTD/svg10.dtd">
<svg version="1.0" xmlns="http://www.w3.org/2000/svg"
 width="1280.000000pt" height="640.000000pt" viewBox="0 0 1280.000000 640.000000"
 preserveAspectRatio="xMidYMid meet">
<metadata>
Created by potrace 1.15, written by Peter Selinger 2001-2017
</metadata>
<g transform="translate(0.000000,640.000000) scale(0.100000,-0.100000)"
fill="#000000" stroke="none">
<path d="M2489 3813 c-22 -26 -24 -37 -27 -150 l-4 -123 -79 0 -79 0 0 34 c0
63 -14 66 -277 66 l-233 0 0 -34 c0 -26 -5 -35 -21 -39 -16 -4 -20 -12 -17
-34 2 -17 9 -28 18 -28 10 0 16 -12 18 -36 3 -30 -1 -37 -18 -42 -17 -4 -21
-12 -18 -39 2 -25 7 -32 21 -30 27 5 25 -74 -3 -81 -15 -4 -20 -14 -20 -36 0
-24 4 -31 20 -31 17 0 20 -7 20 -40 0 -34 -3 -40 -21 -40 -17 0 -20 -5 -17
-32 2 -25 7 -32 21 -30 14 2 17 -5 17 -36 0 -32 -4 -41 -21 -45 -16 -4 -20
-12 -17 -39 2 -25 7 -32 21 -30 27 5 25 -74 -3 -81 -15 -4 -20 -14 -20 -36 0
-24 4 -31 20 -31 18 0 20 -7 20 -85 l0 -86 148 3 147 3 3 48 3 47 82 0 c123 0
127 4 127 141 l0 109 80 0 80 0 0 -65 c0 -55 -3 -65 -17 -65 -17 -1 -17 -1 0
-14 14 -11 17 -30 17 -123 0 -96 3 -114 21 -137 l20 -26 319 0 c179 0 321 4
324 9 3 5 6 104 6 220 l1 211 182 0 182 0 0 -57 c0 -47 -4 -60 -20 -70 l-20
-12 20 -1 c19 0 20 -6 17 -82 -5 -115 4 -166 35 -194 l26 -24 311 0 c229 0
315 3 324 12 9 9 12 73 12 225 l0 213 36 0 35 0 -2 -75 c-2 -41 0 -78 5 -82 9
-9 371 -7 1096 7 278 5 804 14 1170 20 366 5 796 12 955 15 160 3 556 10 880
15 325 5 898 15 1275 21 377 6 715 8 752 5 124 -11 292 -77 473 -186 l80 -48
145 24 c80 14 151 23 159 22 8 -2 23 -29 33 -63 l17 -60 -24 -25 c-16 -16 -25
-38 -25 -56 0 -92 162 -92 194 -1 12 34 -6 74 -39 87 -23 9 -25 14 -25 74 0
76 -14 68 165 96 72 11 154 24 183 29 29 4 54 5 56 2 2 -3 11 -32 20 -65 l17
-59 -26 -27 c-40 -42 -32 -89 18 -114 37 -17 40 -17 83 -1 80 30 99 101 37
140 -31 19 -32 23 -33 86 l0 66 173 27 c94 15 183 29 197 32 24 4 27 0 42 -58
l17 -63 -24 -25 c-65 -68 5 -151 99 -120 88 29 102 125 24 153 -15 5 -18 19
-18 72 0 36 3 65 8 65 22 0 244 40 255 46 62 35 79 89 49 158 -41 92 -117 164
-240 226 -78 39 -101 47 -232 74 -89 19 -105 25 -102 41 10 56 -74 124 -137
110 -37 -8 -63 -37 -63 -70 0 -14 -1 -25 -3 -25 -1 0 -62 11 -136 25 -74 14
-144 25 -156 25 -19 0 -23 5 -23 34 0 87 -119 137 -180 76 -11 -11 -20 -32
-20 -46 0 -19 -4 -24 -17 -20 -10 3 -71 14 -135 25 -173 30 -168 28 -168 65 0
23 -9 41 -31 62 -25 24 -39 29 -81 29 -40 0 -53 -4 -69 -24 -10 -13 -19 -33
-19 -46 0 -21 -3 -22 -37 -14 -21 4 -71 13 -111 19 l-73 12 -84 -81 c-88 -85
-127 -109 -215 -135 -66 -20 -333 -21 -1265 -6 -330 5 -935 14 -1345 20 -916
13 -1816 26 -2773 41 -542 9 -731 9 -740 0 -6 -6 -26 -11 -44 -11 l-33 0 0
153 c0 106 -4 157 -12 165 -9 9 -95 12 -324 12 l-311 0 -26 -24 c-31 -29 -40
-78 -35 -199 2 -70 0 -88 -12 -93 -8 -3 -90 -2 -182 2 l-167 7 -3 151 -3 151
-316 3 -315 2 -25 -27z m-81 -293 l52 0 0 -59 0 -58 -44 -6 c-23 -4 -59 -4
-80 0 l-36 6 0 57 c0 63 5 74 35 66 11 -3 44 -6 73 -6z m1097 -18 c6 -4 10
-31 10 -60 l0 -52 -182 0 -183 0 0 60 0 60 173 0 c94 0 177 -4 182 -8z m783
-64 l3 -58 -36 0 -35 0 0 61 0 60 33 -3 c32 -3 32 -4 35 -60z m-1830 -120 l-3
-63 -77 -3 -78 -3 0 66 0 65 80 0 81 0 -3 -62z m1057 -8 l0 -60 -182 0 -183 0
0 60 0 60 183 0 182 0 0 -60z m775 -6 l0 -54 -35 0 -35 0 0 58 0 58 35 -4 35
-4 0 -54z m-1830 -132 l5 -62 -82 0 -83 0 0 65 0 66 78 -3 77 -3 5 -63z m990
62 l65 -6 0 -59 0 -59 -182 0 -183 0 0 58 c0 32 3 62 7 65 8 9 206 9 293 1z
m838 -61 c-3 -57 -3 -58 -35 -61 l-33 -3 0 60 0 61 35 0 36 0 -3 -57z m-1859
-79 l32 -7 -3 -61 -3 -61 -77 -3 -78 -3 0 64 c0 35 3 67 7 70 8 9 81 9 122 1z
m1085 -56 c1 -40 -3 -59 -12 -63 -8 -3 -90 -5 -183 -5 l-169 0 0 65 0 65 181
-2 181 -3 2 -57z m776 2 l0 -60 -35 0 -35 0 0 60 0 60 35 0 35 0 0 -60z"/>
<path d="M820 2344 c-83 -36 -124 -106 -118 -200 5 -77 41 -136 103 -168 40
-21 50 -21 909 -24 l868 -2 54 24 c72 33 107 86 112 170 6 95 -36 165 -120
201 -33 13 -144 15 -905 15 -753 -1 -873 -3 -903 -16z"/>
</g>
</svg>
