<?xml version="1.0" standalone="no"?>
<!DOCTYPE svg PUBLIC "-//W3C//DTD SVG 20010904//EN"
 "http://www.w3.org/TR/2001/REC-SVG-20010904/DTD/svg10.dtd">
<svg version="1.0" xmlns="http://www.w3.org/2000/svg"
 width="396.000000pt" height="1280.000000pt" viewBox="0 0 396.000000 1280.000000"
 preserveAspectRatio="xMidYMid meet">
<metadata>
Created by potrace 1.15, written by Peter Selinger 2001-2017
</metadata>
<g transform="translate(0.000000,1280.000000) scale(0.100000,-0.100000)"
fill="#000000" stroke="none">
<path d="M2359 12744 c-84 -74 -148 -104 -221 -104 l-57 0 -22 -75 c-27 -91
-48 -100 -70 -28 -12 41 -19 48 -54 60 -70 24 -117 -23 -123 -122 l-4 -61 47
-18 c46 -18 47 -18 76 3 29 22 64 28 73 12 3 -5 2 -22 -4 -37 -5 -16 -18 -61
-30 -101 -18 -62 -23 -70 -40 -66 -12 3 -20 14 -20 27 0 38 -24 69 -65 83 -36
12 -42 12 -65 -5 -39 -29 -66 -103 -54 -149 8 -33 15 -40 51 -53 40 -13 44
-13 73 8 31 23 70 23 70 0 0 -11 -51 -190 -56 -196 -1 -2 -11 -1 -21 2 -12 4
-23 23 -31 50 -10 40 -16 45 -57 59 l-45 16 -30 -30 c-36 -36 -55 -95 -46
-142 6 -31 12 -37 51 -51 44 -14 46 -14 74 10 24 20 34 23 55 14 14 -5 24 -15
21 -22 -2 -7 -16 -53 -31 -103 -14 -49 -28 -93 -31 -97 -10 -17 -32 7 -43 47
-11 40 -17 45 -58 59 -44 16 -46 15 -70 -6 -37 -35 -52 -72 -52 -127 0 -49 1
-51 36 -66 47 -20 60 -19 93 4 29 21 76 18 68 -3 -2 -6 -17 -55 -32 -108 -15
-54 -30 -98 -34 -98 -16 1 -29 19 -42 59 -13 40 -18 45 -59 57 -42 12 -46 12
-69 -9 -31 -29 -51 -77 -51 -124 0 -50 7 -58 58 -74 39 -11 45 -11 71 9 26 19
71 21 71 4 0 -4 -14 -53 -32 -110 -23 -75 -35 -102 -46 -100 -9 2 -17 16 -19
32 -6 47 -21 65 -62 77 -34 10 -42 9 -65 -7 -35 -26 -56 -73 -56 -127 0 -49 8
-58 60 -76 30 -10 38 -9 62 9 31 23 68 27 68 7 0 -7 -13 -54 -29 -104 l-28
-92 57 -35 c58 -36 120 -111 120 -146 0 -9 5 -21 12 -28 27 -27 28 -412 4
-1772 -3 -146 -7 -467 -10 -715 -3 -247 -8 -553 -11 -680 -3 -126 -8 -394 -10
-595 -6 -483 -16 -1174 -20 -1330 -2 -69 -5 -273 -7 -454 l-3 -328 -55 -51
c-30 -28 -88 -72 -129 -99 -300 -196 -532 -63 -674 389 -58 183 -113 489 -133
733 -11 136 -9 135 -98 50 -42 -41 -102 -111 -133 -157 -104 -158 -145 -304
-145 -528 0 -228 35 -406 167 -865 140 -484 170 -633 169 -840 -1 -191 -20
-260 -118 -440 -259 -475 -387 -798 -468 -1185 -20 -97 -23 -138 -23 -340 0
-220 1 -235 28 -335 33 -122 98 -267 161 -354 94 -130 274 -284 440 -375 276
-153 688 -242 1256 -271 944 -48 1501 79 1818 415 247 262 311 636 195 1155
-71 323 -199 652 -435 1126 l-123 246 0 97 c1 83 6 110 37 201 20 58 70 182
111 275 97 221 142 344 180 485 29 108 31 126 31 295 0 219 -15 290 -104 470
-55 111 -112 202 -95 150 3 -11 11 -58 17 -104 46 -353 -200 -840 -498 -988
-69 -34 -88 -38 -166 -41 -81 -4 -93 -2 -152 26 -113 53 -206 158 -285 322
-23 47 -49 92 -59 100 -9 8 -18 23 -19 34 -2 25 -13 711 -18 1181 -9 762 -15
1204 -20 1500 -2 165 -7 509 -10 765 -3 256 -8 555 -10 665 -8 385 -20 1483
-19 1757 2 241 5 291 24 385 30 151 80 252 169 342 l69 70 -23 128 c-13 70
-29 182 -37 248 -19 175 -16 832 5 1154 23 350 24 331 -16 331 -26 0 -47 -12
-98 -56z"/>
</g>
</svg>
