<?xml version="1.0" standalone="no"?>
<!DOCTYPE svg PUBLIC "-//W3C//DTD SVG 20010904//EN"
 "http://www.w3.org/TR/2001/REC-SVG-20010904/DTD/svg10.dtd">
<svg version="1.0" xmlns="http://www.w3.org/2000/svg"
 width="1280.000000pt" height="818.000000pt" viewBox="0 0 1280.000000 818.000000"
 preserveAspectRatio="xMidYMid meet">
<metadata>
Created by potrace 1.15, written by Peter Selinger 2001-2017
</metadata>
<g transform="translate(0.000000,818.000000) scale(0.100000,-0.100000)"
fill="#000000" stroke="none">
<path d="M11850 8170 c-14 -4 -38 -8 -54 -9 -20 -1 -42 -15 -76 -49 -53 -54
-53 -53 5 -126 36 -45 92 -76 138 -76 25 0 42 9 66 34 30 31 33 40 29 74 -6
43 -58 155 -73 158 -5 1 -21 -2 -35 -6z"/>
<path d="M12239 8118 c-106 -77 -302 -194 -442 -264 -200 -100 -665 -314 -684
-314 -3 0 7 14 21 31 33 39 33 62 -2 141 -36 79 -50 92 -86 78 -15 -5 -39 -10
-54 -10 -34 0 -128 -91 -116 -112 46 -76 125 -137 181 -139 25 0 24 -2 -17
-20 -25 -11 -85 -34 -133 -51 l-88 -31 -31 -61 c-16 -34 -42 -76 -56 -95 -28
-37 65 9 -1407 -707 -484 -235 -1019 -496 -1190 -580 -433 -212 -2176 -1053
-2934 -1415 l-373 -179 -87 0 c-147 0 -257 44 -309 122 -24 36 -27 53 -30 134
-11 289 118 435 458 516 96 23 140 42 140 62 0 24 -110 105 -206 151 -139 68
-259 96 -439 102 -293 11 -536 -47 -839 -199 -297 -149 -568 -387 -818 -718
-106 -141 -248 -231 -418 -266 -119 -24 -269 -15 -490 30 -388 78 -635 75
-885 -8 -215 -72 -352 -160 -531 -340 -92 -92 -146 -156 -182 -215 -139 -228
-200 -489 -188 -806 9 -258 48 -482 146 -854 62 -236 100 -342 191 -530 229
-476 718 -1137 978 -1324 213 -154 365 -210 654 -239 221 -23 512 34 729 143
181 90 286 177 425 352 139 175 194 264 319 525 138 286 200 394 275 476 112
122 214 154 634 196 310 32 438 57 592 119 104 41 230 110 313 172 114 83 279
252 363 369 117 165 237 432 237 530 0 40 -31 90 -56 90 -8 0 -61 -23 -118
-51 -78 -38 -117 -52 -164 -56 -132 -12 -282 58 -336 156 -75 140 -74 287 5
442 36 73 79 117 254 263 72 60 131 114 133 120 2 6 33 26 70 45 37 18 751
391 1587 829 2377 1243 2596 1357 2999 1566 682 355 650 341 731 340 77 0 121
-12 208 -55 l58 -29 45 31 c73 50 247 130 259 118 6 -6 10 -62 10 -127 0 -97
3 -124 20 -157 19 -37 23 -40 60 -38 103 5 110 7 113 31 2 13 13 27 26 31 47
19 50 36 15 88 -47 71 -70 93 -95 93 -12 0 -29 11 -38 25 -9 14 -23 25 -31 25
-13 0 -45 36 -45 51 0 4 66 35 148 69 170 72 223 92 230 86 9 -9 10 -141 1
-157 -11 -21 16 -127 39 -152 13 -15 25 -17 57 -13 22 3 54 7 70 8 22 2 31 9
33 25 2 12 11 25 21 28 10 3 26 14 35 23 15 17 13 23 -32 88 -36 53 -53 70
-75 72 -16 2 -34 14 -43 28 -9 13 -22 24 -30 24 -7 0 -20 10 -29 23 -15 21
-14 23 12 34 15 7 104 38 197 69 136 46 170 54 177 43 12 -18 11 -46 0 -54 -6
-3 -6 -17 0 -35 7 -20 7 -35 0 -49 -12 -22 0 -93 26 -143 16 -33 55 -45 89
-29 14 6 36 8 49 5 20 -5 25 -1 31 20 3 15 19 33 35 42 37 18 36 36 -1 94 -37
57 -60 79 -90 85 -12 2 -27 11 -34 20 -6 9 -22 21 -36 28 -42 21 -36 41 16 55
55 15 334 131 334 140 0 3 -22 47 -50 97 -50 95 -70 168 -70 268 0 56 -19 97
-54 121 -19 12 -26 25 -26 47 0 45 -25 84 -74 119 -84 57 -169 151 -207 227
l-36 73 -44 -32z"/>
<path d="M11408 7969 c-37 -7 -59 -20 -93 -54 -25 -25 -45 -49 -45 -53 0 -15
83 -107 113 -126 18 -10 51 -19 75 -20 35 -1 46 4 67 29 41 49 41 69 3 153
-37 85 -41 86 -120 71z"/>
</g>
</svg>
