<?xml version="1.0" standalone="no"?>
<!DOCTYPE svg PUBLIC "-//W3C//DTD SVG 20010904//EN"
 "http://www.w3.org/TR/2001/REC-SVG-20010904/DTD/svg10.dtd">
<svg version="1.0" xmlns="http://www.w3.org/2000/svg"
 width="1280.000000pt" height="640.000000pt" viewBox="0 0 1280.000000 640.000000"
 preserveAspectRatio="xMidYMid meet">
<metadata>
Created by potrace 1.15, written by Peter Selinger 2001-2017
</metadata>
<g transform="translate(0.000000,640.000000) scale(0.100000,-0.100000)"
fill="#000000" stroke="none">
<path d="M11915 6352 c-61 -28 -95 -74 -95 -127 0 -71 15 -93 69 -101 l46 -7
-113 -43 c-62 -24 -124 -46 -140 -50 -26 -6 -26 -5 11 26 43 37 47 63 15 110
-47 68 -133 88 -209 50 -58 -30 -81 -72 -76 -139 5 -63 22 -81 79 -81 21 0 38
-3 38 -8 0 -9 -292 -83 -300 -75 -3 3 0 8 7 10 37 13 63 46 63 80 0 46 -59
108 -113 118 -112 21 -211 -67 -191 -170 9 -49 28 -65 75 -65 61 0 39 -14 -53
-35 -82 -19 -84 -20 -159 -96 -89 -90 -104 -99 -230 -134 -101 -29 -355 -110
-1054 -335 -242 -78 -565 -182 -717 -231 -153 -49 -403 -129 -555 -178 -153
-49 -476 -153 -718 -231 -242 -78 -564 -181 -715 -230 -151 -49 -473 -152
-715 -230 -492 -158 -442 -152 -487 -65 -12 22 -47 81 -78 131 l-57 90 30 -4
c41 -6 57 17 47 64 -18 79 -72 96 -103 32 l-18 -37 -102 110 c-154 166 -245
231 -402 286 -74 25 -91 27 -235 28 -140 0 -165 -3 -255 -29 -270 -76 -421
-180 -658 -454 -193 -221 -332 -290 -567 -279 -136 6 -225 28 -495 122 -391
137 -547 176 -779 196 -467 40 -924 -132 -1297 -489 -187 -179 -318 -356 -435
-587 -125 -249 -189 -475 -215 -755 -20 -221 15 -653 68 -824 5 -19 5 -19 -28
0 -53 31 -67 34 -84 18 -19 -20 -19 -57 1 -99 24 -51 44 -53 82 -9 17 21 34
35 36 33 2 -2 20 -62 40 -133 174 -616 542 -1119 962 -1312 84 -39 372 -125
496 -148 212 -40 460 -40 741 0 326 46 566 159 842 396 245 211 387 384 627
766 201 320 278 393 465 444 71 19 116 21 503 28 469 9 532 16 667 80 114 53
223 182 223 264 0 22 -14 48 -44 86 l-44 55 -74 0 c-60 1 -83 6 -131 30 -142
70 -226 233 -215 411 14 212 216 386 637 548 168 65 239 113 303 204 12 18
420 167 2044 748 1116 399 2038 726 2049 726 11 1 22 5 25 9 3 4 119 48 259
98 242 86 259 91 336 91 95 0 160 -17 268 -72 l78 -39 145 36 c80 19 149 35
154 35 8 0 34 -72 27 -75 -1 0 -21 -13 -44 -28 -49 -31 -54 -55 -26 -114 25
-54 66 -75 138 -71 72 4 106 25 135 84 25 51 26 95 1 125 -16 19 -29 24 -72
25 -51 0 -53 1 -65 37 -7 20 -10 38 -6 40 4 3 78 22 164 43 100 24 161 35 167
29 4 -6 11 -22 15 -37 5 -23 2 -30 -21 -42 -16 -8 -36 -23 -47 -35 -26 -29
-14 -85 28 -127 97 -97 266 -21 266 119 0 51 -34 77 -98 77 -51 0 -51 0 -58
35 -3 20 -5 37 -3 39 5 4 304 56 324 56 8 0 18 -14 23 -32 8 -30 6 -34 -17
-47 -55 -29 -69 -49 -61 -87 20 -89 69 -120 179 -116 46 3 115 71 125 126 14
76 -38 128 -113 111 -26 -6 -30 -3 -36 25 -4 17 -5 33 -3 35 2 2 62 13 133 25
151 25 198 42 232 86 l24 32 -20 41 c-36 69 -51 149 -51 263 l0 108 -36 39
c-28 32 -37 52 -44 99 -10 72 -19 86 -81 134 -27 21 -62 62 -79 90 -25 45 -37
74 -65 165 -4 13 -52 -3 -257 -80 l-68 -26 16 24 c19 29 14 60 -17 99 -44 56
-122 76 -184 48z"/>
</g>
</svg>
