<?xml version="1.0" standalone="no"?>
<!DOCTYPE svg PUBLIC "-//W3C//DTD SVG 20010904//EN"
 "http://www.w3.org/TR/2001/REC-SVG-20010904/DTD/svg10.dtd">
<svg version="1.0" xmlns="http://www.w3.org/2000/svg"
 width="1280.000000pt" height="640.000000pt" viewBox="0 0 1280.000000 640.000000"
 preserveAspectRatio="xMidYMid meet">
<metadata>
Created by potrace 1.15, written by Peter Selinger 2001-2017
</metadata>
<g transform="translate(0.000000,640.000000) scale(0.100000,-0.100000)"
fill="#000000" stroke="none">
<path d="M3 5935 c-3 -9 0 -35 6 -58 6 -23 20 -109 31 -192 113 -810 308
-1721 526 -2455 255 -858 601 -1692 988 -2384 58 -104 106 -193 106 -198 0 -5
11 -20 25 -33 20 -21 34 -25 84 -25 98 0 153 17 431 135 728 310 1132 469
1545 611 l101 35 119 -42 c192 -65 907 -313 1185 -409 140 -49 440 -152 665
-230 226 -78 473 -163 550 -190 l140 -49 49 27 c58 32 100 86 121 155 8 28 15
54 15 58 0 3 -239 301 -531 660 -292 360 -535 665 -541 679 -13 32 -4 149 16
216 34 112 120 185 293 247 89 32 108 35 212 36 83 1 117 -2 123 -11 7 -10 11
-9 22 4 18 24 121 26 130 3 7 -19 26 -20 26 -1 0 10 20 15 78 18 42 2 79 0 80
-4 5 -12 32 -10 32 2 0 6 38 10 95 10 57 0 95 -4 95 -10 0 -14 27 -13 32 2 5
15 168 25 168 9 0 -14 27 -14 32 0 3 8 72 12 226 13 122 0 222 4 222 9 0 13
225 8 238 -5 10 -10 15 -10 22 2 13 21 238 28 251 8 8 -11 10 -11 18 0 6 10
44 15 130 19 108 5 121 4 121 -11 0 -21 16 -21 28 0 8 14 33 17 163 21 85 1
214 6 287 10 121 6 134 5 146 -12 13 -18 14 -18 23 0 9 16 29 18 158 23 119 4
149 2 156 -9 8 -12 10 -12 18 1 8 11 44 15 167 18 137 4 158 2 166 -12 12 -22
25 -20 31 3 4 18 17 20 168 23 97 2 171 -1 182 -7 12 -7 20 -7 25 1 4 7 72 14
178 18 167 6 172 6 177 -14 7 -25 27 -26 27 -1 0 17 12 19 151 26 134 7 153 6
161 -9 10 -17 82 -23 92 -7 4 5 53 -3 114 -19 542 -143 1057 -398 1612 -800
147 -106 154 -110 199 -110 32 0 44 6 65 31 24 28 26 38 26 129 0 210 -45 331
-173 467 -78 82 -92 113 -49 113 23 0 186 130 175 140 -68 58 -186 141 -193
134 -13 -15 -62 -183 -57 -197 3 -7 -2 -23 -12 -35 l-16 -22 -70 56 c-38 30
-76 61 -83 68 -18 17 -4 46 22 46 20 1 176 123 176 138 -1 8 -163 130 -183
138 -15 5 -72 -156 -70 -197 1 -15 -6 -34 -15 -42 -16 -14 -25 -9 -104 55 -79
62 -86 71 -75 89 6 10 20 19 31 19 18 0 174 118 175 132 1 9 -188 153 -193
147 -12 -14 -64 -193 -60 -204 3 -8 -3 -25 -13 -38 l-18 -24 -58 46 c-32 25
-68 53 -80 63 -18 14 -19 19 -8 32 7 9 21 16 30 16 16 0 173 122 173 135 -1
13 -186 145 -193 138 -11 -13 -63 -177 -61 -197 0 -10 -5 -28 -12 -38 -12 -17
-18 -15 -95 47 -71 58 -80 68 -71 85 6 11 18 20 28 20 13 0 127 84 175 129 4
5 -37 42 -92 85 l-100 76 -31 -97 c-17 -53 -29 -104 -27 -113 2 -9 -4 -28 -13
-40 l-18 -24 -54 42 c-117 91 -112 86 -97 110 8 12 22 22 32 22 15 0 177 123
177 135 0 5 -186 145 -193 145 -7 0 -68 -186 -66 -203 2 -20 -1 -31 -16 -51
-14 -18 -19 -15 -109 58 -52 42 -97 76 -99 76 -2 0 -10 -19 -17 -42 -36 -121
-113 -214 -220 -266 -95 -45 -108 -47 -112 -20 l-3 23 -201 -4 c-201 -3 -201
-3 -207 19 -6 24 -27 19 -27 -7 0 -14 -14 -15 -122 -10 -66 4 -145 7 -173 7
-45 0 -53 3 -58 21 -6 23 -27 17 -27 -7 0 -12 -29 -14 -175 -14 -168 0 -175 1
-175 20 0 11 -7 20 -15 20 -8 0 -15 -9 -15 -20 0 -19 -7 -20 -158 -20 -106 0
-162 4 -170 12 -8 8 -15 8 -27 -2 -11 -9 -38 -11 -106 -5 -50 3 -254 6 -452 6
-249 0 -365 3 -374 10 -9 9 -17 8 -28 -1 -12 -10 -43 -11 -128 -5 -61 4 -174
7 -249 6 -93 -2 -138 1 -138 8 0 6 -7 11 -15 11 -8 0 -15 -4 -15 -10 0 -10
-667 -13 -684 -3 -4 3 -143 5 -307 5 -191 -1 -301 2 -305 9 -4 6 -11 6 -20 -2
-11 -9 -71 -10 -247 -5 -128 5 -285 8 -349 7 l-117 0 -60 50 c-117 98 -190
219 -230 383 -12 49 -31 106 -41 126 -40 79 -116 120 -251 135 -43 5 -100 -3
-255 -34 -233 -46 -506 -92 -724 -121 -85 -11 -178 -27 -207 -36 -80 -23 -166
3 -400 119 -291 145 -656 362 -1683 998 -655 406 -911 562 -1175 714 -261 150
-509 282 -552 294 -54 15 -93 14 -100 -4z"/>
</g>
</svg>
