<?xml version="1.0" standalone="no"?>
<!DOCTYPE svg PUBLIC "-//W3C//DTD SVG 20010904//EN"
 "http://www.w3.org/TR/2001/REC-SVG-20010904/DTD/svg10.dtd">
<svg version="1.0" xmlns="http://www.w3.org/2000/svg"
 width="640.000000pt" height="1280.000000pt" viewBox="0 0 640.000000 1280.000000"
 preserveAspectRatio="xMidYMid meet">
<metadata>
Created by potrace 1.15, written by Peter Selinger 2001-2017
</metadata>
<g transform="translate(0.000000,1280.000000) scale(0.100000,-0.100000)"
fill="#000000" stroke="none">
<path d="M2866 12781 c-25 -27 -34 -71 -46 -216 -5 -71 -17 -185 -26 -252 -18
-131 -18 -131 -71 -117 -16 4 -23 14 -23 30 0 30 -14 37 -54 30 -103 -20 -138
-171 -55 -240 37 -32 61 -33 98 -5 19 14 36 19 50 14 19 -6 20 -11 14 -103 -7
-119 -14 -134 -56 -130 -24 2 -33 9 -37 28 -6 22 -11 25 -50 24 -36 -1 -49 -7
-77 -37 -29 -32 -33 -44 -33 -89 0 -66 27 -114 76 -134 34 -14 38 -14 58 5 13
13 36 21 55 21 l33 0 -6 -67 c-13 -140 -15 -143 -47 -143 -19 0 -34 8 -45 25
-23 35 -81 35 -123 -1 -81 -68 -52 -222 45 -240 30 -5 40 -2 63 20 31 29 59
34 68 10 3 -8 1 -57 -4 -107 -15 -148 1 -181 114 -241 104 -55 119 -126 103
-486 -5 -129 -14 -521 -20 -870 -17 -1143 -20 -1321 -25 -1625 -19 -1065 -25
-1422 -30 -1750 -3 -203 -8 -429 -11 -502 l-6 -132 -37 18 c-70 35 -167 63
-241 69 -66 5 -78 9 -107 37 -30 29 -31 33 -18 51 8 10 15 29 15 42 0 19 -5
22 -40 22 -21 0 -62 -5 -90 -11 -41 -9 -50 -15 -50 -32 0 -11 7 -28 15 -37 11
-13 14 -28 9 -58 -6 -38 -10 -41 -68 -66 -158 -67 -297 -191 -364 -324 -60
-121 -76 -206 -69 -371 11 -251 58 -443 167 -681 88 -191 102 -240 107 -370 5
-98 2 -128 -16 -195 -44 -159 -142 -306 -322 -480 -141 -137 -209 -213 -276
-311 -206 -302 -302 -659 -273 -1021 26 -328 112 -593 270 -830 222 -333 527
-548 975 -686 163 -51 509 -107 656 -107 71 0 80 -11 82 -92 l2 -63 93 -3 c88
-3 92 -2 92 18 0 12 -7 34 -15 50 -10 19 -11 31 -4 35 5 4 14 17 19 29 8 21
16 23 132 29 562 30 1015 212 1338 538 492 496 622 1288 315 1923 -90 187
-222 361 -496 653 -187 197 -237 297 -246 488 -6 121 12 209 78 361 73 171
149 385 175 489 43 180 31 354 -36 490 -27 55 -97 153 -110 155 -3 0 -13 -33
-23 -72 -39 -168 -137 -296 -274 -361 -60 -28 -80 -32 -173 -35 -88 -3 -115 0
-170 18 -67 22 -164 86 -211 136 l-26 29 -7 600 c-4 330 -13 825 -21 1100 -8
275 -15 655 -15 845 0 351 -12 974 -30 1650 -15 523 -29 1530 -23 1562 7 35
52 80 117 117 30 16 64 42 76 58 21 27 22 33 16 161 l-7 132 25 0 c13 0 31 3
40 6 12 4 16 0 16 -15 0 -49 70 -36 107 18 41 60 24 170 -30 206 -14 9 -41 19
-61 22 -34 5 -36 4 -36 -21 0 -24 -4 -26 -39 -26 l-39 0 -6 68 c-4 37 -9 83
-11 103 -4 32 -2 38 18 43 46 12 57 8 57 -24 0 -27 3 -30 31 -30 41 0 99 56
100 97 4 115 -35 174 -119 177 -33 1 -37 -1 -34 -21 3 -21 -1 -23 -36 -23
l-40 0 -6 68 c-4 37 -9 92 -12 123 l-6 56 34 5 c36 6 48 -4 48 -39 0 -54 92
-13 122 53 26 60 17 114 -26 162 -28 29 -40 35 -77 36 -41 1 -44 -1 -44 -24 0
-22 -4 -25 -35 -25 -35 0 -35 0 -42 55 -3 30 -14 140 -22 243 -21 240 -29 281
-62 296 -37 17 -48 14 -77 -19 -33 -37 -62 -38 -125 -5 -63 32 -153 28 -209
-10 -55 -37 -100 -34 -143 10 -38 39 -59 44 -84 16z"/>
</g>
</svg>
